<svg xmlns="http://www.w3.org/2000/svg" viewBox="0 0 750 500"><g id="freepik--Ring--inject-56"><polygon points="598.47 302.63 152.56 301.72 16.05 460.32 733.28 460.32 598.47 302.63" style="fill:#ebebeb"></polygon><path d="M598.47,302.62,733.41,460.21l.25.28h-.38l-582.44.09H15.48l.37-.43L152.39,301.57l.07-.08h.11l445.9,1.13L152.56,302l.18-.08L16.24,460.49l-.2-.43h134.8l582.44.08-.14.29Z" style="fill:#263238"></path><path d="M407.35,408c0,.14-24.3,7-54.36,15.42s-54.46,15-54.5,14.92,24.3-7,54.36-15.42S407.31,407.85,407.35,408Z" style="fill:#263238"></path><path d="M412.22,375c0,.14-9,2.88-20.22,6.13s-20.32,5.76-20.36,5.63,9-2.88,20.22-6.13S412.18,374.85,412.22,375Z" style="fill:#263238"></path><path d="M518.12,423.16c0,.14-10.45,2.66-23.42,5.63s-23.52,5.26-23.55,5.12,10.46-2.66,23.43-5.63S518.09,423,518.12,423.16Z" style="fill:#263238"></path><path d="M582.47,192.35c0,.14-92.85.26-207.37.26s-207.4-.12-207.4-.26,92.84-.26,207.4-.26S582.47,192.2,582.47,192.35Z" style="fill:#263238"></path><path d="M582.47,216.52c0,.14-92.85.26-207.37.26s-207.4-.12-207.4-.26,92.84-.26,207.4-.26S582.47,216.37,582.47,216.52Z" style="fill:#263238"></path><path d="M582.47,240.69c0,.14-92.85.26-207.37.26s-207.4-.12-207.4-.26,92.84-.26,207.4-.26S582.47,240.54,582.47,240.69Z" style="fill:#263238"></path><path d="M579,264.86c0,.14-92.86.26-207.38.26s-207.4-.12-207.4-.26,92.84-.26,207.4-.26S579,264.71,579,264.86Z" style="fill:#263238"></path><line x1="732.16" y1="239.52" x2="585.72" y2="194.81" style="fill:#e0e0e0"></line><path d="M585.72,194.81c0-.14,32.86,9.76,73.29,22.1s73.19,22.47,73.15,22.61-32.86-9.76-73.3-22.11S585.68,195,585.72,194.81Z" style="fill:#263238"></path><path d="M595.26,217.05c.07-.12,30.24,15.46,67.38,34.82s67.21,35.15,67.15,35.28-30.23-15.46-67.39-34.82S595.2,217.18,595.26,217.05Z" style="fill:#263238"></path><path d="M584.63,236.52c.08-.11,32.65,21.92,72.72,49.2s72.52,49.52,72.44,49.64-32.64-21.91-72.73-49.21S584.55,236.64,584.63,236.52Z" style="fill:#263238"></path><path d="M589,261.13s.14.1.39.31l1.13.94c1,.82,2.39,2.12,4.22,3.76,3.63,3.3,8.83,8.13,15.24,14.12,12.81,12,30.42,28.62,49.82,47.05s36.89,35.18,49.6,47.3l15,14.39c1.74,1.7,3.11,3,4,3.93l1,1c.24.23.35.36.35.36a3.92,3.92,0,0,1-.38-.33l-1.08-1-4.12-3.86-15.09-14.27-49.71-47.2-49.72-47.16-15.12-14.23c-1.8-1.66-3.17-3-4.15-3.83l-1.09-1A3.83,3.83,0,0,1,589,261.13Z" style="fill:#263238"></path><path d="M15.4,231.83c2.66.08,147.79-38.57,147.79-38.57" style="fill:#e0e0e0"></path><path d="M163.19,193.26a1.88,1.88,0,0,1-.37.13l-1.11.32-4.29,1.19-15.8,4.28L89.43,213.07C69,218.45,50.56,223.26,37.16,226.66c-6.7,1.7-12.13,3.05-15.89,3.94-1.88.43-3.33.8-4.34,1l-1.15.2a1.37,1.37,0,0,1-.38.05,2.58,2.58,0,0,1,.38-.1l1.13-.25c1-.21,2.44-.61,4.31-1.07l15.85-4.11L89.3,212.57l52.23-13.74,15.84-4.12,4.31-1.1,1.13-.27Z" style="fill:#263238"></path><path d="M160.49,213.65c.06.13-32.23,14.47-72.11,32S16.1,277.33,16,277.19s32.23-14.46,72.13-32S160.44,213.52,160.49,213.65Z" style="fill:#263238"></path><path d="M161.28,234.43c.08.12-32.23,21.8-72.15,48.42s-72.37,48.12-72.45,48,32.22-21.8,72.16-48.43S161.2,234.31,161.28,234.43Z" style="fill:#263238"></path><path d="M166.79,257.73s-8.5,7.42-22.12,19.56L91.43,324.7,38.19,372.1,22,386.44l-4.41,3.87c-.5.43-.88.77-1.16,1a4.33,4.33,0,0,1-.41.33l.37-.37,1.13-1,4.34-3.95,16.06-14.46,53.15-47.52c20.78-18.52,39.63-35.25,53.33-47.3,6.85-6,12.41-10.88,16.28-14.21,1.94-1.66,3.43-3,4.48-3.8l1.19-1C166.64,257.83,166.79,257.73,166.79,257.73Z" style="fill:#263238"></path><rect x="152.57" y="165.04" width="33" height="136.68" style="fill:#455a64"></rect><rect x="565.47" y="161.66" width="33" height="140.96" style="fill:#455a64"></rect><g style="opacity:0.2"><path d="M161.28,414.88c-8.31.25-23.4-2.42-26.14,3.46l7.15,19.13c6.11-1.62,14.71-10.15,21.72-12.39s14.5-2.52,21.86-2.5c24.37.06,48.64,3.1,73,3.89s49.25-.79,72-9.55C274.55,411.46,217.82,413.17,161.28,414.88Z"></path></g><g style="opacity:0.2"><path d="M592.27,414c-51.25-.55-96.95,1.31-148.14,3.79-6.71.33-15.23,2-23.66,2.35,14,5.22,28.09,5.69,43,5.9,29.24.39,59.3-.63,88.54-.23,10,.14,20.84,2.14,29.94-2.05,8.29-3.82,13.53-9.82,19.24-16.95Z"></path></g></g><g id="freepik--character-2--inject-56"><path d="M471.14,252.69s-36.83,51.69-37.56,58.75,8.58,83.24,8.58,83.24l17.3-1.42h0s4.89-30.23,5.18-39.14c.4-11.82-4.42-33.4-4.42-33.4l40.14-53.26Z" style="fill:#ffbf9d"></path><path d="M440.16,384.82l2.23,22s-22.63,9.28-22.7,13.38l43.82-2-.15-3.46-2.57-10.68,1-20.29Z" style="fill:#FF725E"></path><path d="M463.51,418.2l-.15-3.46-42,3.22s-2,.92-1.66,2.25Z" style="fill:#263238"></path><path d="M441.66,406.65c0,.21,1.11.25,2.21.88s1.71,1.47,1.91,1.38-.19-1.29-1.53-2S441.61,406.46,441.66,406.65Z" style="fill:#263238"></path><path d="M437.08,408.72c0,.21.92.52,1.7,1.37s1,1.78,1.25,1.76.3-1.21-.69-2.25S437.08,408.52,437.08,408.72Z" style="fill:#263238"></path><path d="M434.68,414.22c.2,0,.46-1-.16-2.14s-1.64-1.53-1.73-1.35.58.76,1.06,1.69S434.47,414.21,434.68,414.22Z" style="fill:#263238"></path><path d="M441.82,401.58c.1.19,1.08-.15,2.31-.12s2.21.35,2.31.16-.85-.88-2.3-.89S441.7,401.42,441.82,401.58Z" style="fill:#263238"></path><path d="M442,401.53a9.93,9.93,0,0,1,.82-1.94c.27-.59.59-1.3.88-2.1a8.49,8.49,0,0,0,.38-1.24,2.22,2.22,0,0,0,0-.63c0-.19-.15-.35-.2-.34s-.52.49-.74.83a9.25,9.25,0,0,0-.61,1.16,8.35,8.35,0,0,0-.57,2.14c-.17,1.27,0,2.07-.1,2.09a4.35,4.35,0,0,1-.27-2.12,7.66,7.66,0,0,1,.5-2.29,7.26,7.26,0,0,1,.62-1.25c.13-.21.27-.41.42-.61a.93.93,0,0,1,.84-.47.87.87,0,0,1,.62.78,2.66,2.66,0,0,1,0,.8,8.66,8.66,0,0,1-.43,1.33,20.56,20.56,0,0,1-1,2.08A7.73,7.73,0,0,1,442,401.53Z" style="fill:#263238"></path><path d="M441.43,401.05c-.08,0-.5-.82-1.51-1.95a10.63,10.63,0,0,0-2-1.72,9.7,9.7,0,0,0-1.35-.77,7.87,7.87,0,0,0-.74-.32.39.39,0,0,0-.23,0s0,0,0,.11a3.28,3.28,0,0,0,.7,1.36,6,6,0,0,0,1.12,1,19,19,0,0,0,2.31,1.31,6,6,0,0,1,2.09,1.38c-.05.05-.83-.46-2.25-1a14.82,14.82,0,0,1-2.42-1.25,4.55,4.55,0,0,1-2.07-2.75.6.6,0,0,1,.33-.61.8.8,0,0,1,.61,0,7.58,7.58,0,0,1,.81.35,11.23,11.23,0,0,1,1.4.83,10.39,10.39,0,0,1,2,1.88A5.48,5.48,0,0,1,441.43,401.05Z" style="fill:#263238"></path><path d="M528.56,319.49c-.5.09,15.27,23,20,28.1s43.06,48.61,43.06,48.61l10.61-6.33s-14.32-40-20.45-47.51a113.25,113.25,0,0,0-12.64-12.6l-8-17.28Z" style="fill:#ffbf9d"></path><path d="M579.58,383.49l12.82,18S579,421.94,581.23,425.37l34.82-26-1.95-3.14-8.34-7.2-9.94-17.87Z" style="fill:#FF725E"></path><path d="M616.05,399.37l-1.95-3.14-32.87,26.41s-1,1.79,0,2.73Z" style="fill:#263238"></path><path d="M591.69,401.76c.13.16,1.06-.42,2.32-.53s2.25.25,2.35.07-.87-1-2.4-.8S591.54,401.63,591.69,401.76Z" style="fill:#263238"></path><path d="M589.09,406.06c.08.19,1-.1,2.17.17s1.86.88,2,.74-.43-1.17-1.84-1.47S589,405.89,589.09,406.06Z" style="fill:#263238"></path><path d="M590.21,412c.19-.08-.2-1.1-1.34-1.68s-2.22-.33-2.19-.14.9.31,1.83.8S590,412.06,590.21,412Z" style="fill:#263238"></path><path d="M589,397.49c.18.09.81-.74,1.84-1.41s2-1,2-1.17-1.21-.25-2.41.56S588.77,397.42,589,397.49Z" style="fill:#263238"></path><path d="M589.06,397.36a9.87,9.87,0,0,1-.42-2.07c-.11-.64-.25-1.4-.46-2.23a6.86,6.86,0,0,0-.39-1.24,2,2,0,0,0-.34-.52c-.13-.15-.32-.21-.36-.17s-.15.7-.14,1.1a8.74,8.74,0,0,0,.15,1.3,8.42,8.42,0,0,0,.74,2.1c.58,1.14,1.17,1.71,1.1,1.77a4.13,4.13,0,0,1-1.42-1.59,7.43,7.43,0,0,1-1.08-3.55c0-.25,0-.49,0-.75a.91.91,0,0,1,.43-.86.89.89,0,0,1,1,.29,2.76,2.76,0,0,1,.44.67,7.92,7.92,0,0,1,.39,1.34,20.39,20.39,0,0,1,.36,2.29A7.47,7.47,0,0,1,589.06,397.36Z" style="fill:#263238"></path><path d="M588.34,397.27c-.05.08-.88-.4-2.35-.75a11,11,0,0,0-2.62-.31,12,12,0,0,0-1.54.13c-.26,0-.55.1-.79.16a.46.46,0,0,0-.21.11s0,0,0,.12a3.31,3.31,0,0,0,1.35.72,5.6,5.6,0,0,0,1.5.21,18.27,18.27,0,0,0,2.65-.22,6,6,0,0,1,2.5,0c0,.07-.94.09-2.44.4a14.06,14.06,0,0,1-2.71.34,4.56,4.56,0,0,1-3.26-1.09.61.61,0,0,1-.07-.7.87.87,0,0,1,.5-.35c.31-.07.58-.12.86-.16a11.54,11.54,0,0,1,1.63-.11,10.32,10.32,0,0,1,2.71.43A5.56,5.56,0,0,1,588.34,397.27Z" style="fill:#263238"></path><path d="M516.9,179.53s-20,19.72-29.46,24.23-20-2.73-21.69-6.3-20.05-36.83-20.05-36.83l15.1-4.93,18.69,22.62,4.88-7.1a43.23,43.23,0,0,1,10-9.72l14.39-10.06s11,3.21,11.36,4.26S516.9,179.53,516.9,179.53Z" style="fill:#ffbf9d"></path><path d="M451.38,123.39a3.24,3.24,0,0,1,4.5-1.58c3.22,1.42,9,10.19,7,17.07s-5,8.1-5,8.1l-16.5,10.32a4,4,0,0,1-4.53-1.07c-1.33-1.52-6.36-9.79-9.38-14.81a9.15,9.15,0,0,1,1.47-11.33L429,130c4-3.73,12.82-9.33,15.84-10S451.38,123.39,451.38,123.39Z" style="fill:#FF725E"></path><g style="opacity:0.2"><path d="M445.26,121.63c-3,.25-5.39,2.2-7.4,4.47a5.64,5.64,0,0,0-1.49,3.39,4.31,4.31,0,0,0,1.09,3.21,3.26,3.26,0,0,0,2.8.67,2.27,2.27,0,0,0,.79-.69l6.46-7.78a2.25,2.25,0,0,0,.72-1.64,1.45,1.45,0,0,0-1-1.05A6.54,6.54,0,0,0,445.26,121.63Z" style="fill:#fff"></path></g><path d="M429.48,139.73a15.09,15.09,0,0,1,1.54.85c1,.57,2.39,1.37,4.18,2.3s3.93,2.11,6.56,2.2a13,13,0,0,0,7.88-2.8,21,21,0,0,0,3.37-2.86,5.23,5.23,0,0,0,.64-.83,7.91,7.91,0,0,0,.56-.86,9,9,0,0,0,.74-1.84,9.81,9.81,0,0,0,.28-3.66,14.21,14.21,0,0,0-.76-3.16,21,21,0,0,0-2.1-4.24c-.29-.48-.55-.83-.72-1.07s-.27-.35-.27-.37a5.14,5.14,0,0,1,1.16,1.33,18.68,18.68,0,0,1,2.28,4.22,15.22,15.22,0,0,1,.84,3.23,10.19,10.19,0,0,1-.25,3.85,9.37,9.37,0,0,1-.76,1.95,7.43,7.43,0,0,1-.59.91,5.68,5.68,0,0,1-.67.88,20.63,20.63,0,0,1-3.46,3,13.29,13.29,0,0,1-8.19,2.85A15.55,15.55,0,0,1,435,143.2c-1.78-1-3.17-1.83-4.12-2.44A9,9,0,0,1,429.48,139.73Z" style="fill:#263238"></path><path d="M457.21,144.69l.92,1.75,1.76.74,4.89,7.81a1.81,1.81,0,0,1-.53,2.48l-15.2,10.19a1.82,1.82,0,0,1-2.58-.58l-5.08-8.56.21-1.32-1.06-1.7Z" style="fill:#FF725E"></path><path d="M441.36,157.3a15,15,0,0,1,2.37-1.7c1.5-1,3.6-2.34,5.93-3.79s4.45-2.75,6-3.66a15.65,15.65,0,0,1,2.57-1.39,16.7,16.7,0,0,1-2.37,1.7c-1.51,1-3.6,2.33-5.93,3.79s-4.46,2.74-6,3.66A16.69,16.69,0,0,1,441.36,157.3Z" style="fill:#263238"></path><path d="M451.08,123.07a7.61,7.61,0,0,1,1.58,1.69,22.69,22.69,0,0,1,2.86,4.8,23.17,23.17,0,0,1,1.63,5.35,7.47,7.47,0,0,1,.18,2.31,47,47,0,0,0-2.28-7.45A46.88,46.88,0,0,0,451.08,123.07Z" style="fill:#263238"></path><g style="opacity:0.30000000000000004"><path d="M431.16,140.78c1.77,2.45,3.7,5,6.52,6.11a11,11,0,0,0,4.53.61,14.82,14.82,0,0,0,7.49-2.34,10.86,10.86,0,0,0,4.56-6.29c-3.28,2.66-6.77,5.4-10.94,6.1-4.38.73-8.72-1.37-12.16-4.19"></path></g><path d="M473.19,140.94l16.48-5.32L505,133.48s14,3.74,17.35,11.2a134.13,134.13,0,0,1,8.93,33c1.75,12.89,3.57,36.48,3.57,36.48,0,.47.85,18.52.85,18.52l-57,4.31.93-21.76-4.06-25.31-1.88-24.25Z" style="fill:#ffbf9d"></path><path d="M468.2,94.67A4.54,4.54,0,0,1,465.65,86a4.72,4.72,0,0,1,3.54-8.23,5.65,5.65,0,0,1,8.17-5.23,6.35,6.35,0,0,1,7.79-.71,4.52,4.52,0,0,1,4.53,7.36" style="fill:#263238"></path><path d="M504.41,134.86l-1.2-39c.15-10.77-6-19.83-16.77-19.67l-1,.07a19.24,19.24,0,0,0-17.86,19c-.08,9.33,0,19.64.38,24.61.88,10.3,11.3,11.16,11.3,11.16l.34,8.58,12.79,8.69Z" style="fill:#ffbf9d"></path><path d="M479.19,131.12a25.09,25.09,0,0,0,13.21-4.94s-2.64,7.65-13,7.47Z" style="fill:#ff9a6c"></path><path d="M470.43,104.35a1.47,1.47,0,0,0,1.53,1.38,1.4,1.4,0,0,0,1.42-1.43,1.49,1.49,0,0,0-1.53-1.39A1.42,1.42,0,0,0,470.43,104.35Z" style="fill:#263238"></path><path d="M470.17,100.24c.2.18,1.25-.73,2.83-.84s2.81.6,3,.39-.13-.42-.66-.76a4.11,4.11,0,0,0-2.39-.55,3.9,3.9,0,0,0-2.24.91C470.21,99.8,470.07,100.16,470.17,100.24Z" style="fill:#263238"></path><path d="M484.51,103.65A1.48,1.48,0,0,0,486,105a1.43,1.43,0,0,0,1.43-1.44,1.48,1.48,0,0,0-1.53-1.38A1.41,1.41,0,0,0,484.51,103.65Z" style="fill:#263238"></path><path d="M485.76,99.4c.19.18,1.25-.72,2.83-.83s2.81.59,3,.39-.13-.43-.66-.76a4,4,0,0,0-2.39-.55,3.9,3.9,0,0,0-2.24.91C485.8,99,485.66,99.32,485.76,99.4Z" style="fill:#263238"></path><path d="M480.86,111.57a10.49,10.49,0,0,0-2.6-.28c-.41,0-.8-.07-.89-.34a2.08,2.08,0,0,1,.19-1.22c.3-1,.63-2.06,1-3.16,1.34-4.51,2.28-8.2,2.1-8.25s-1.42,3.55-2.76,8.06l-.92,3.18a2.34,2.34,0,0,0-.1,1.6,1,1,0,0,0,.71.55,2.84,2.84,0,0,0,.69,0A10.52,10.52,0,0,0,480.86,111.57Z" style="fill:#263238"></path><path d="M485,95.81c.26.37,1.54-.27,3.19-.57s3.09-.25,3.18-.68c0-.21-.32-.52-1-.75a5.06,5.06,0,0,0-2.57-.15,4.86,4.86,0,0,0-2.28,1.1C485.05,95.22,484.87,95.63,485,95.81Z" style="fill:#263238"></path><path d="M469.51,95.26c.31.38,1.65.09,3.22.18s2.89.43,3.22.08c.15-.18,0-.55-.6-.93a5.05,5.05,0,0,0-2.57-.76,5,5,0,0,0-2.61.55C469.59,94.71,469.38,95.07,469.51,95.26Z" style="fill:#263238"></path><path d="M468.24,90.56s2.25-6.65,5.25-8.39c3.63-2.09,5.56,1.93,9.07.66s7-3.27,10.86-.76c4.24,2.74,2.51,5,3.09,9.57,2.35,18.46,6.12,23.46,6.45,14.66,0-1,2.63-1.92,2.73-6,.13-5.28-.13-11.66-1.57-15.29-1.21-3.07-3.15-5.1-6.53-7.26-5.34-3.4-12.29-3-17-2.16S467.22,82.51,468.24,90.56Z" style="fill:#263238"></path><path d="M502.28,106.06a2.8,2.8,0,0,1,2.83-2.91c1.93,0,4.15,1,4.31,5,.29,7.06-6.86,5.89-6.88,5.69S502.38,109,502.28,106.06Z" style="fill:#ffbf9d"></path><path d="M504,111.08s.12.08.33.17a1.29,1.29,0,0,0,.93,0,3,3,0,0,0,1.29-2.79,3.88,3.88,0,0,0-.41-1.74,1.43,1.43,0,0,0-1-.91.62.62,0,0,0-.71.37c-.09.2,0,.34-.07.35s-.16-.11-.11-.41a.76.76,0,0,1,.26-.45.89.89,0,0,1,.67-.21,1.74,1.74,0,0,1,1.33,1,4.25,4.25,0,0,1,.51,2c0,1.42-.67,2.78-1.68,3.12a1.31,1.31,0,0,1-1.13-.14C504,111.25,503.94,111.1,504,111.08Z" style="fill:#ff9a6c"></path><path d="M501.15,92.42a6.75,6.75,0,0,1-2.88,1.6,2.32,2.32,0,0,1-2.67-1.43c-.12-.49,0-1.07-.39-1.42s-1.12-.23-1.7-.13c-2,.37-4.59-1.72-5.26-3.68a1.84,1.84,0,0,1-2.42.69A6.59,6.59,0,0,1,484,86.67a2.88,2.88,0,0,0-2.5-1,7,7,0,0,1-1.51.45c-.93,0-1.46-1.07-1.67-2s-.39-2-1.21-2.42a3.76,3.76,0,0,0-2.53.11c-.84.19-2,.07-2.23-.75a1.68,1.68,0,0,1,.22-1.3,4.58,4.58,0,0,1,5.26-2.11,6.2,6.2,0,0,1,11.28-2,6.29,6.29,0,0,1,10.2,1.56,4.56,4.56,0,0,1,5.61,6.25,4.35,4.35,0,0,1,2.63,3.27c.13,1.45-1.19,3-2.62,2.73a2.53,2.53,0,0,1-4.18,2.83" style="fill:#263238"></path><path d="M477.48,79.75s0,0,0,.13,0,.21.07.37a4.68,4.68,0,0,0,.61,1.32,5,5,0,0,0,1.69,1.55,4.73,4.73,0,0,0,2.94.62l-.13-.15a2.59,2.59,0,0,0,.28,1.93,7.42,7.42,0,0,0,1.33,1.65,6.31,6.31,0,0,0,.85.75,2.4,2.4,0,0,0,1.15.33,2.56,2.56,0,0,0,2.21-1l-.27-.06a5.28,5.28,0,0,0,2.51,3.49,3.81,3.81,0,0,0,2.36.59,6.91,6.91,0,0,0,2.25-.66l-.2-.07A5.59,5.59,0,0,0,497,92.62a2.94,2.94,0,0,0,2.5.49,3.88,3.88,0,0,0,2.77-3.25l-.15.08a3.61,3.61,0,0,0,2.44.18,3.91,3.91,0,0,0,1.64-.87,3.27,3.27,0,0,0,.72-.92A1.18,1.18,0,0,0,507,88a3.85,3.85,0,0,1-1,1.21,3.93,3.93,0,0,1-1.6.8,3.56,3.56,0,0,1-2.31-.21l-.14-.07v.16a3.67,3.67,0,0,1-2.63,3,2.64,2.64,0,0,1-2.27-.47,5.25,5.25,0,0,1-1.72-1.95l-.06-.12-.13,0a6.76,6.76,0,0,1-2.15.64,3.59,3.59,0,0,1-2.19-.55,5.05,5.05,0,0,1-2.37-3.29l-.07-.33-.2.27a2.27,2.27,0,0,1-1.95.86,2.18,2.18,0,0,1-1-.28,4.79,4.79,0,0,1-.8-.71,7,7,0,0,1-1.3-1.57,2.3,2.3,0,0,1-.28-1.75l0-.17-.17,0A4.54,4.54,0,0,1,480,83a4.91,4.91,0,0,1-1.67-1.47A5.45,5.45,0,0,1,477.48,79.75Z" style="fill:#455a64"></path><path d="M481.6,117c0-.26,1.78,0,3.24-1.36s1.51-3.24,1.76-3.22.28.47.2,1.26a4.45,4.45,0,0,1-1.38,2.7,3.84,3.84,0,0,1-2.69,1C482,117.34,481.57,117.08,481.6,117Z" style="fill:#263238"></path><path d="M426.16,191.65s17.27,24.89,29.24,25.79,16.9-15.07,16.9-15.07L482,165.9,476.85,140a20.59,20.59,0,0,0-16.52,15.35,58.18,58.18,0,0,0-2.24,17.22l-6.61,19.58-15.09-10.48Z" style="fill:#ffbf9d"></path><path d="M431.86,173.44s2-.46,1.62-5.58S430.19,156,426,152.92c-3.15-2.28-6.93-.56-6.06,1.63a9,9,0,0,0-7-3.51c-4.88-.28-10,2.34-12.84,5.05s-7.87,11.23-3.75,19.24c3.19,6.22,12.79,11.45,16.93,13.48a3,3,0,0,0,3.44-.56Z" style="fill:#FF725E"></path><path d="M431.86,173.44l-.21.25-.65.66-2.49,2.52L419.29,186c-.48.49-1,1-1.49,1.48l-.77.76a3.64,3.64,0,0,1-.93.71,3.21,3.21,0,0,1-2.38.23,21.86,21.86,0,0,1-2.18-1,60.36,60.36,0,0,1-8.76-5.47,31.76,31.76,0,0,1-4.16-3.76,15.6,15.6,0,0,1-3.13-5,14.73,14.73,0,0,1-.9-6,18,18,0,0,1,1.46-6.08,19.67,19.67,0,0,1,1.91-3.53,14,14,0,0,1,2.61-3,20.53,20.53,0,0,1,6.63-3.7,14.72,14.72,0,0,1,7.17-.68,9.21,9.21,0,0,1,5.75,3.45l-.4.21a1.84,1.84,0,0,1,.28-1.86,3.05,3.05,0,0,1,1.53-1,5.17,5.17,0,0,1,3.37.25,8.82,8.82,0,0,1,2.58,1.87,15.72,15.72,0,0,1,1.92,2.3,25,25,0,0,1,3.84,9.13,13.27,13.27,0,0,1,0,6.38,3.1,3.1,0,0,1-.9,1.44,1,1,0,0,1-.51.26,1.87,1.87,0,0,0,.47-.32,3.11,3.11,0,0,0,.8-1.42,13.44,13.44,0,0,0-.15-6.28,25,25,0,0,0-3.89-9,15.58,15.58,0,0,0-1.88-2.22,8.53,8.53,0,0,0-2.47-1.77,4.65,4.65,0,0,0-3.08-.22,2.65,2.65,0,0,0-1.31.82,1.36,1.36,0,0,0-.21,1.41l.73,1.74-1.13-1.53a8.73,8.73,0,0,0-5.46-3.22,14.12,14.12,0,0,0-6.92.68,20,20,0,0,0-6.46,3.62,13.59,13.59,0,0,0-2.51,2.87,19.3,19.3,0,0,0-1.86,3.44A17.82,17.82,0,0,0,395.1,168a14.31,14.31,0,0,0,.86,5.8,15.21,15.21,0,0,0,3,4.82,31.66,31.66,0,0,0,4.09,3.71,60.24,60.24,0,0,0,8.66,5.47,22.3,22.3,0,0,0,2.1,1,2.82,2.82,0,0,0,2.08-.19,8,8,0,0,0,1.61-1.39l1.52-1.47,9.35-9.05,2.55-2.43.67-.62A1.41,1.41,0,0,1,431.86,173.44Z" style="fill:#263238"></path><path d="M441.89,180.34l-7.38-7.1c-.9-.88-2.06-.58-2.95.31L417.2,187.61a2.25,2.25,0,0,0-.33,3.13l7.08,7.74a2.31,2.31,0,0,0,3.36.05l14.62-14.9A2.32,2.32,0,0,0,441.89,180.34Z" style="fill:#FF725E"></path><path d="M441.89,180.34a1.65,1.65,0,0,1,.5.59,2.39,2.39,0,0,1,0,2.2,6,6,0,0,1-1.05,1.25l-1.31,1.37-3.22,3.34-8.41,8.65c-.42.41-.75.82-1.26,1.24a2.55,2.55,0,0,1-1.84.47,2.6,2.6,0,0,1-1.69-.94l-1.24-1.35-5.17-5.64c-.22-.25-.44-.46-.67-.74a2.12,2.12,0,0,1-.43-1,2.77,2.77,0,0,1,.59-2c.91-1,1.81-1.8,2.7-2.68l5.1-5,4.63-4.49q1.08-1.06,2.1-2a2.62,2.62,0,0,1,2.57-1,2.55,2.55,0,0,1,1.08.76l.86.84,1.56,1.53,2.49,2.46,1.56,1.57a5,5,0,0,1,.52.57,4.08,4.08,0,0,1-.6-.5l-1.62-1.5L437.12,176l-1.59-1.51-.87-.82a2.34,2.34,0,0,0-1-.66,2.25,2.25,0,0,0-2.18.91l-2.08,2-4.59,4.53-5.08,5c-.86.86-1.83,1.75-2.65,2.64a2.21,2.21,0,0,0-.48,1.6,1.69,1.69,0,0,0,.32.77c.18.22.43.47.64.71l5.17,5.65c.41.45.83.9,1.23,1.35a2.14,2.14,0,0,0,1.38.79,2.07,2.07,0,0,0,1.49-.38c.4-.31.81-.79,1.21-1.17l8.49-8.58,3.27-3.28,1.35-1.35a6.31,6.31,0,0,0,1-1.16,2.29,2.29,0,0,0,.05-2.06A5.93,5.93,0,0,0,441.89,180.34Z" style="fill:#263238"></path><path d="M419.4,154A7.69,7.69,0,0,1,421,155.4a43.15,43.15,0,0,1,6.13,7.95,7.49,7.49,0,0,1,.93,1.86c-.13.08-1.79-2.62-4.17-5.7S419.29,154.14,419.4,154Z" style="fill:#263238"></path><g style="opacity:0.2"><path d="M410.28,153.34a6.59,6.59,0,0,0-4.81,1.34,16.66,16.66,0,0,0-6.84,9.66,5.68,5.68,0,0,0-.14,2.17,5.18,5.18,0,0,0,.6,1.83,2,2,0,0,0,1.72,1c1.28,0,1.79-1.32,2.28-2.37a12.2,12.2,0,0,1,4.36-5.05,34.2,34.2,0,0,0,3.87-2.45c1.4-1.23,2.32-3.34,1-5A3.38,3.38,0,0,0,410.28,153.34Z" style="fill:#fff"></path></g><path d="M461.75,151.44a9.65,9.65,0,0,1-.5,1.45,38.83,38.83,0,0,0-1.11,4.08,97,97,0,0,0-1.83,14.41v.06l-1.91,6.4c-1.65,5.43-3.17,10.47-4.44,14.65l-.05-.2a20.58,20.58,0,0,1,4,7.52,17,17,0,0,1,.52,2.32,3.69,3.69,0,0,1,.08.83,3.69,3.69,0,0,1-.21-.81c-.12-.53-.31-1.3-.62-2.27a21.57,21.57,0,0,0-4.13-7.31l-.08-.09,0-.11,4.35-14.68,1.93-6.4v.06a85.63,85.63,0,0,1,2-14.45,31,31,0,0,1,1.26-4.07c.19-.46.36-.81.47-1A3.12,3.12,0,0,1,461.75,151.44Z" style="fill:#ff9a6c"></path><path d="M483.06,163.85a10.59,10.59,0,0,1-.09,1.6c0,.52-.12,1.14-.23,1.87s-.23,1.55-.42,2.45a120.44,120.44,0,0,1-3.73,13.91c-1.72,5.36-3.44,10.15-4.61,13.64l-1.37,4.13a10.32,10.32,0,0,1-.53,1.51,11,11,0,0,1,.33-1.56c.26-1,.67-2.44,1.22-4.2,1.09-3.52,2.75-8.33,4.46-13.67s3.1-10.24,3.87-13.83c.21-.9.36-1.71.49-2.43s.25-1.34.32-1.84A8.76,8.76,0,0,1,483.06,163.85Z" style="fill:#ff9a6c"></path><path d="M475.75,190.91c.15,0,1.13,5.4,2.21,12.11s1.83,12.17,1.69,12.19-1.13-5.4-2.21-12.11S475.61,190.93,475.75,190.91Z" style="fill:#ff9a6c"></path><path d="M479.19,225.87l-1,12.93L440.5,296.46l35.78,24.18L510,279.06l1.13-.64,15.74,48.75,38.53-14.69s-9.31-22.78-12.34-33.39c-1.6-5.57-3.27-16.64-5.79-24.78a107.44,107.44,0,0,0-9.5-20.8l-2.24-11.37s-25.31,8.27-38.17,6.18S479.19,225.87,479.19,225.87Z" style="fill:#FF725E"></path><path d="M478.24,238l1-12.6s20.45,3.16,27.24,2.33,29.07-5.59,29.07-5.59l2.08,10.59s-16.17,5.7-28.67,6.87S478.24,238,478.24,238Z" style="fill:#e0e0e0"></path><path d="M523.93,246.64a7.8,7.8,0,0,1,.21,1.48,13.86,13.86,0,0,1,.12,1.75c0,.68.08,1.46,0,2.32s0,1.81-.18,2.81-.26,2.08-.46,3.21a36.76,36.76,0,0,1-2.12,7.1,35.09,35.09,0,0,1-3.61,6.47,30.93,30.93,0,0,1-2,2.52,23.88,23.88,0,0,1-2,2,19.45,19.45,0,0,1-1.77,1.5,13.81,13.81,0,0,1-1.41,1,8.57,8.57,0,0,1-1.28.78c-.07-.1,1.76-1.22,4.21-3.59a23.76,23.76,0,0,0,1.9-2c.68-.74,1.3-1.61,2-2.51a36.85,36.85,0,0,0,3.52-6.4,38.88,38.88,0,0,0,2.13-7c.21-1.11.41-2.16.5-3.16s.18-1.93.24-2.78,0-1.62.05-2.3,0-1.27,0-1.74A9.14,9.14,0,0,1,523.93,246.64Z" style="fill:#263238"></path><path d="M528.67,275.88a72.8,72.8,0,0,1-8.57,1.58,70.26,70.26,0,0,1-8.65,1.06,73.78,73.78,0,0,1,8.58-1.58A72.89,72.89,0,0,1,528.67,275.88Z" style="fill:#263238"></path><g style="opacity:0.30000000000000004"><path d="M511.84,278.46a21.05,21.05,0,0,0,12.58,1.43,27.22,27.22,0,0,0,10.28-5.24Z"></path></g><polygon points="486.26 227.17 487.7 230.93 491.61 231.87 488.49 234.4 488.8 238.41 485.43 236.22 481.71 237.76 482.75 233.87 480.14 230.81 484.16 230.6 486.26 227.17" style="fill:#fff"></polygon><polygon points="502.09 228.51 503.93 232.09 507.92 232.6 505.09 235.46 505.84 239.41 502.24 237.6 498.72 239.53 499.33 235.56 496.4 232.8 500.37 232.15 502.09 228.51" style="fill:#fff"></polygon><polygon points="517.4 226.4 520 229.47 524 229.07 521.88 232.49 523.49 236.18 519.59 235.22 516.58 237.89 516.29 233.88 512.82 231.85 516.54 230.33 517.4 226.4" style="fill:#fff"></polygon><polygon points="536.13 225.91 533.62 222.77 532.66 226.68 528.89 228.1 532.31 230.22 532.5 234.24 535.57 231.65 537.6 232.4 536.13 225.91" style="fill:#fff"></polygon></g><g id="freepik--character-1--inject-56"><path d="M261.37,185.4s20,19.72,29.46,24.24,20-2.73,21.69-6.31,20.05-36.83,20.05-36.83l-15.1-4.92L298.79,184.2l-4.88-7.11a43.28,43.28,0,0,0-10-9.72l-14.38-10.05s-11,3.2-11.37,4.26S261.37,185.4,261.37,185.4Z" style="fill:#d8765f"></path><path d="M326.89,129.26a3.22,3.22,0,0,0-4.49-1.57c-3.22,1.41-9,10.18-7,17.06s5,8.1,5,8.1l16.5,10.32a4,4,0,0,0,4.52-1.07c1.33-1.52,6.36-9.78,9.39-14.81A9.17,9.17,0,0,0,349.36,136l-.12-.11c-4-3.73-12.82-9.33-15.84-10S326.89,129.26,326.89,129.26Z" style="fill:#455a64"></path><path d="M348.79,145.6a9.19,9.19,0,0,1-1.42,1c-.95.62-2.34,1.47-4.12,2.44a15.43,15.43,0,0,1-6.71,2.37,13.41,13.41,0,0,1-8.2-2.86,20.11,20.11,0,0,1-3.45-3,4.76,4.76,0,0,1-.67-.88,8.8,8.8,0,0,1-.6-.9,9.62,9.62,0,0,1-.75-2,10.16,10.16,0,0,1-.26-3.84,14.49,14.49,0,0,1,.85-3.23,18.56,18.56,0,0,1,2.28-4.23,5.25,5.25,0,0,1,1.15-1.33s-.09.13-.26.37-.43.6-.73,1.07a21,21,0,0,0-2.1,4.24,15.73,15.73,0,0,0-.76,3.16,9.82,9.82,0,0,0,.29,3.66,7,7,0,0,0,1.3,2.7,4.28,4.28,0,0,0,.64.83,20.21,20.21,0,0,0,3.37,2.87,13.09,13.09,0,0,0,7.88,2.8c2.62-.09,4.78-1.31,6.56-2.21s3.2-1.73,4.18-2.29A15,15,0,0,1,348.79,145.6Z" style="fill:#263238"></path><path d="M321,150.77l-.92,1.74-1.76.75-4.89,7.81a1.82,1.82,0,0,0,.53,2.48l15.2,10.18a1.81,1.81,0,0,0,2.58-.58l5.09-8.56-.22-1.31,1.07-1.7Z" style="fill:#455a64"></path><path d="M336.92,163.17a16.69,16.69,0,0,1-2.57-1.39c-1.55-.91-3.68-2.21-6-3.66s-4.43-2.8-5.93-3.79a15.77,15.77,0,0,1-2.37-1.7,16.69,16.69,0,0,1,2.57,1.39c1.55.91,3.68,2.21,6,3.66s4.42,2.8,5.92,3.79A15.6,15.6,0,0,1,336.92,163.17Z" style="fill:#263238"></path><path d="M327.2,128.94a45.44,45.44,0,0,0-4,6.7,45.79,45.79,0,0,0-2.28,7.45,7.11,7.11,0,0,1,.18-2.31,23.08,23.08,0,0,1,1.62-5.35,23.39,23.39,0,0,1,2.86-4.8A7.49,7.49,0,0,1,327.2,128.94Z" style="fill:#263238"></path><path d="M301.14,196.6a4.93,4.93,0,0,1-1.42-1.46,11.71,11.71,0,0,1-1.92-9.37,4.81,4.81,0,0,1,.73-1.89c.08,0-.18.76-.37,2a13.23,13.23,0,0,0,1.87,9.1A18.79,18.79,0,0,1,301.14,196.6Z" style="fill:#8d4032"></path><g style="opacity:0.2"><path d="M341.93,133c-1.42-2.68-4.15-4.09-7-5a5.62,5.62,0,0,0-3.71,0,4.29,4.29,0,0,0-2.52,2.26,3.27,3.27,0,0,0,.48,2.83,2.26,2.26,0,0,0,1,.46l9.69,2.87a2.19,2.19,0,0,0,1.79,0,1.45,1.45,0,0,0,.59-1.29A6.76,6.76,0,0,0,341.93,133Z" style="fill:#fff"></path></g><g style="opacity:0.30000000000000004"><path d="M341,149.82a14.6,14.6,0,0,1-4.3,1.33,10.75,10.75,0,0,1-5.16-1,15.14,15.14,0,0,1-7.43-6.32,10.31,10.31,0,0,1-.4-9.53l-.59,1.07a20,20,0,0,0-1.39,8.33,10.65,10.65,0,0,0,10.34,10.4,15,15,0,0,0,13.05-6.05Z"></path></g><path d="M171.53,328.08s15.28,11.43,24.8,11.27a229.66,229.66,0,0,0,23.41-2.22Z" style="fill:#263238"></path><polygon points="260.86 328.39 272.6 324.76 298.86 299.78 260.86 328.39" style="fill:#263238"></polygon><path d="M222.19,137.53c-5,1.11-9.72,2.85-13.16,6.65a29.45,29.45,0,0,0-8.05,19.5c-.61,17,2.8,49.86,3,52.66s-4.81,21.84-4.81,21.84l60.91-.86,5.79-25.38,3.7-19.11-2.79-22.09.79-24.56-12.1-5.94-24.73-5-1,.62Z" style="fill:#d8765f"></path><path d="M230.08,115.42a77.64,77.64,0,0,1-3.53-12.89,27,27,0,0,1,.9-13.22c.22-.63,2.18-4.91,2.85-4.85.48,0-.7,4-.46,4.44a23,23,0,0,1,2.75,13.34,60.52,60.52,0,0,1-2.51,13.18" style="fill:#263238"></path><path d="M230.24,138.28l-.81-39.88c-.5-11.17,5.58-20.78,16.77-21l1,0a20,20,0,0,1,19.16,19.19c.38,9.69.68,20.4.4,25.58-.58,10.71-11.37,11.94-11.37,11.94s-.27,9.93-.26,13.08l-15.93.09-3.87-.36Z" style="fill:#d8765f"></path><path d="M255.42,134.19a25.86,25.86,0,0,1-13.79-4.71s3,8.21,13.76,7.68Z" style="fill:#8d4032"></path><path d="M263.42,105.63a1.54,1.54,0,0,1-1.54,1.48,1.48,1.48,0,0,1-1.53-1.45,1.54,1.54,0,0,1,1.54-1.48A1.48,1.48,0,0,1,263.42,105.63Z" style="fill:#263238"></path><path d="M263.92,101.31c-.2.19-1.33-.71-3-.78s-2.89.71-3.06.5.12-.44.66-.8a4.21,4.21,0,0,1,2.46-.65,4,4,0,0,1,2.36.87C263.86,100.86,264,101.23,263.92,101.31Z" style="fill:#263238"></path><path d="M248.42,105.92a1.54,1.54,0,0,1-1.54,1.49,1.48,1.48,0,0,1-1.53-1.45,1.54,1.54,0,0,1,1.54-1.49A1.48,1.48,0,0,1,248.42,105.92Z" style="fill:#263238"></path><path d="M247.75,101c-.2.19-1.33-.72-3-.78s-2.89.71-3.06.5.13-.45.67-.81a4.26,4.26,0,0,1,2.46-.65,4.11,4.11,0,0,1,2.36.87C247.69,100.57,247.84,100.94,247.75,101Z" style="fill:#263238"></path><path d="M253.14,113.93a11.46,11.46,0,0,1,2.69-.37c.42,0,.83-.09.91-.38a2.15,2.15,0,0,0-.23-1.25c-.35-1-.72-2.12-1.11-3.26-1.54-4.64-2.64-8.44-2.45-8.5s1.59,3.65,3.13,8.28q.56,1.71,1.05,3.27a2.41,2.41,0,0,1,.15,1.67,1,1,0,0,1-.71.58,2.77,2.77,0,0,1-.72.07A10.3,10.3,0,0,1,253.14,113.93Z" style="fill:#263238"></path><path d="M248.38,96.29c-.28.38-1.8-.3-3.72-.63s-3.57-.28-3.7-.74c-.05-.21.33-.54,1.06-.77A6.17,6.17,0,0,1,245,94a6.45,6.45,0,0,1,2.71,1.17C248.27,95.66,248.51,96.1,248.38,96.29Z" style="fill:#263238"></path><path d="M264.29,95.87c-.28.43-1.66.25-3.26.47s-2.91.7-3.28.36c-.17-.16,0-.57.52-1a5.55,5.55,0,0,1,5.28-.67C264.17,95.32,264.42,95.67,264.29,95.87Z" style="fill:#263238"></path><path d="M230,106.38c-.17-.08-7.27-2.48-7.34,4.86s7.31,5.9,7.33,5.69S230,106.38,230,106.38Z" style="fill:#d8765f"></path><path d="M227.74,114.12s-.13.09-.34.19a1.3,1.3,0,0,1-1,0,3.18,3.18,0,0,1-1.44-2.85,4.28,4.28,0,0,1,.38-1.83,1.45,1.45,0,0,1,1-1,.65.65,0,0,1,.75.35c.1.21.05.36.09.37s.16-.12.1-.43a.82.82,0,0,0-.28-.46,1,1,0,0,0-.71-.19,1.8,1.8,0,0,0-1.35,1.12,4.47,4.47,0,0,0-.46,2c0,1.48.78,2.88,1.84,3.19a1.38,1.38,0,0,0,1.17-.18C227.73,114.3,227.77,114.14,227.74,114.12Z" style="fill:#8d4032"></path><path d="M261.65,84.5c1.19-.65-2.38-4.5-5.29-5.83-4.42-2-11.16-3.24-15.23-2.09-4.89,1.39-9,3.83-11.43,8.28a28.93,28.93,0,0,0-3.25,14.75,8.91,8.91,0,0,0,1,4.48c1,1.63,3,2.65,2.91,4.89a3.08,3.08,0,0,0,.76,2.24c1.34,1.43,3,.09,3.74-1.26,1.62-2.87,1.8-6.31,1.94-9.6a21.21,21.21,0,0,0-.46-7c-.36-1.23-.93-2.38-1.22-3.63a4.41,4.41,0,0,1,.52-3.66,4.19,4.19,0,0,1,.6-.6A7.64,7.64,0,0,1,243.86,84c4.14,1.47,11.2,3.66,13,2.26A11.21,11.21,0,0,0,260.19,83Z" style="fill:#263238"></path><path d="M248,115c.25,0,.26,1.67,1.71,2.86s3.24,1,3.26,1.24-.4.33-1.16.35a4.19,4.19,0,0,1-2.72-.93,3.72,3.72,0,0,1-1.33-2.4C247.66,115.36,247.84,115,248,115Z" style="fill:#263238"></path><path d="M203.8,165.87a33.58,33.58,0,0,0,1.54,5.91c2.22,6.28,8.42,23.72,10.82,29.66,3,7.31,10.05,20.06,18,22.28s15.5-4.09,18.41-8.64c6-9.4,17.25-29.37,17.25-29.37l-14.62-6.87L241.41,194s2.82-9.1-1.25-15.11l-2.71-4.53s-2.53-19.21-7-24.4-6.28-7-12.2-7.28" style="fill:#d8765f"></path><path d="M218.28,142.63a16.05,16.05,0,0,1,2.82.25,10.78,10.78,0,0,1,3.24,1.1,15.26,15.26,0,0,1,3.63,2.93c.61.63,1.22,1.33,1.87,2.06a13.76,13.76,0,0,1,1.82,2.46,31.94,31.94,0,0,1,2.57,6.43,119.89,119.89,0,0,1,3.42,16.42l0-.08q1.22,2,2.5,4.16a14.06,14.06,0,0,1,2,4.74,23.36,23.36,0,0,1-.52,10.92l-.4-.22L255,178.67l.12-.14.17.08,14.62,6.87.25.12-.14.24-6.16,10.83c-3.83,6.59-7.53,13-11.46,19.09a22.37,22.37,0,0,1-8,6.92,14.36,14.36,0,0,1-10,1.34,17.5,17.5,0,0,1-8-5.37,46.85,46.85,0,0,1-5.45-7.33,68.52,68.52,0,0,1-4-7.53c-1.15-2.48-1.92-5-2.81-7.32-3.38-9.38-6.13-17-8-22.25-.47-1.32-.91-2.48-1.23-3.51s-.54-1.91-.7-2.63-.26-1.27-.32-1.64-.07-.57-.07-.57,0,.19.13.56.18.91.36,1.63.42,1.58.75,2.6.79,2.18,1.27,3.49c1.94,5.25,4.73,12.83,8.19,22.18.89,2.33,1.67,4.84,2.83,7.29a67.92,67.92,0,0,0,4,7.48,46.79,46.79,0,0,0,5.41,7.23,17.1,17.1,0,0,0,7.8,5.22,13.79,13.79,0,0,0,9.66-1.32,21.78,21.78,0,0,0,7.83-6.76c3.89-6,7.61-12.48,11.43-19.06,2.11-3.71,4.19-7.37,6.16-10.82l.12.36-14.61-6.89.29-.05-13.82,15.1-.65.71.25-.93a23,23,0,0,0,.55-10.69,13.64,13.64,0,0,0-2-4.61l-2.49-4.18,0,0v0A120,120,0,0,0,233.92,158a32.13,32.13,0,0,0-2.5-6.38,14,14,0,0,0-1.77-2.44c-.64-.73-1.24-1.43-1.84-2.06a15,15,0,0,0-3.55-2.94,10.8,10.8,0,0,0-3.19-1.13,17.8,17.8,0,0,0-2.08-.29C218.52,142.67,218.28,142.63,218.28,142.63Z" style="fill:#8d4032"></path><path d="M258.55,168.77s-2.1,0-2.7-5.15.87-12.33,4.37-16.13c2.64-2.86,6.69-1.93,6.27.39a9,9,0,0,1,6.13-4.81c4.72-1.24,10.24.31,13.58,2.39s9.94,9.45,7.5,18.12c-1.89,6.73-10.26,13.75-13.92,16.57a3,3,0,0,1-3.48.14Z" style="fill:#455a64"></path><path d="M258.55,168.77a1.07,1.07,0,0,1,.27.15l.78.47,3,1.88c2.61,1.68,6.35,4.07,11,7l1.77,1.14a8.25,8.25,0,0,0,1.86,1.05,2.87,2.87,0,0,0,2.07-.23,22.44,22.44,0,0,0,1.86-1.42,61,61,0,0,0,7.41-7.08,31.25,31.25,0,0,0,3.26-4.45,14.85,14.85,0,0,0,2-5.32,14.19,14.19,0,0,0-.3-5.86,17.77,17.77,0,0,0-2.58-5.51,19,19,0,0,0-2.5-3,13.72,13.72,0,0,0-3-2.32,20.29,20.29,0,0,0-7.05-2.27,14.18,14.18,0,0,0-6.92.72A8.68,8.68,0,0,0,266.7,148l-.8,1.72.37-1.85a1.39,1.39,0,0,0-.49-1.34,2.63,2.63,0,0,0-1.45-.55,4.71,4.71,0,0,0-3,.83,8.56,8.56,0,0,0-2.07,2.22,17.45,17.45,0,0,0-1.41,2.56,25.16,25.16,0,0,0-2,9.57,13.52,13.52,0,0,0,1.09,6.18,3.11,3.11,0,0,0,1.08,1.24,1.62,1.62,0,0,0,.52.22,1,1,0,0,1-.56-.16,3.08,3.08,0,0,1-1.16-1.23,13.29,13.29,0,0,1-1.24-6.25,25.06,25.06,0,0,1,2-9.72,16.44,16.44,0,0,1,1.42-2.63,8.69,8.69,0,0,1,2.16-2.34,5,5,0,0,1,3.25-.92,3.05,3.05,0,0,1,1.7.64,1.85,1.85,0,0,1,.65,1.76l-.44-.12a9.17,9.17,0,0,1,5-4.52,14.73,14.73,0,0,1,7.16-.77,20.52,20.52,0,0,1,7.24,2.32,14,14,0,0,1,3.14,2.4,19.09,19.09,0,0,1,2.57,3.08A18.34,18.34,0,0,1,294,156a14.85,14.85,0,0,1,.31,6.07,15.46,15.46,0,0,1-2.09,5.49,31.87,31.87,0,0,1-3.33,4.51,60.9,60.9,0,0,1-7.5,7.1,18.69,18.69,0,0,1-1.93,1.45,3.24,3.24,0,0,1-2.38.25,3.36,3.36,0,0,1-1-.51l-.91-.59-1.76-1.15-10.85-7.14-2.94-2-.76-.52A1.72,1.72,0,0,1,258.55,168.77Z" style="fill:#263238"></path><path d="M250.09,177.52l5.82-8.42a2.32,2.32,0,0,1,3.18-.62L276,179.63a2.3,2.3,0,0,1,.71,3.12l-5.4,9a2.32,2.32,0,0,1-3.29.72l-17.28-11.7A2.32,2.32,0,0,1,250.09,177.52Z" style="fill:#455a64"></path><path d="M250.09,177.52a6.17,6.17,0,0,0-.27.72,2.26,2.26,0,0,0,.47,2,6.35,6.35,0,0,0,1.26.94l1.6,1.05,3.88,2.58,10.09,6.76a10.66,10.66,0,0,0,1.42.89,2,2,0,0,0,1.54,0,2.28,2.28,0,0,0,1.15-1.14l.95-1.58c1.28-2.13,2.61-4.34,4-6.6a2.68,2.68,0,0,0,.6-1.67A2.1,2.1,0,0,0,276,180l-3.14-2.08-6-4-5.4-3.59L259,168.69a2.14,2.14,0,0,0-2.36-.08,2.45,2.45,0,0,0-.81.85c-.24.33-.47.66-.69,1l-1.27,1.8-2,2.87-1.31,1.8a3.88,3.88,0,0,1-.48.61,4.59,4.59,0,0,1,.4-.67c.31-.46.71-1.08,1.22-1.85l2-2.93,1.23-1.82.67-1a3,3,0,0,1,.91-1,2.53,2.53,0,0,1,2.77.06l2.46,1.61,5.42,3.55,6,3.94c1.05.7,2.09,1.36,3.19,2.11a2.6,2.6,0,0,1,.77,2.94,9.32,9.32,0,0,1-.5.9l-4,6.59-1,1.58a2.79,2.79,0,0,1-1.39,1.34,2.57,2.57,0,0,1-1.91,0,10.3,10.3,0,0,1-1.51-1l-10-6.85c-1.42-1-2.71-1.86-3.84-2.65l-1.57-1.09a6,6,0,0,1-1.28-1,2.34,2.34,0,0,1-.42-2.17A1.65,1.65,0,0,1,250.09,177.52Z" style="fill:#263238"></path><path d="M266.91,147.27c.13.08-1.56,2.76-3.27,6.26s-2.82,6.46-3,6.41a7.05,7.05,0,0,1,.54-2,42.76,42.76,0,0,1,4.43-9A6.87,6.87,0,0,1,266.91,147.27Z" style="fill:#263238"></path><path d="M233.68,211.17a2.35,2.35,0,0,1-.13-.81,13.23,13.23,0,0,1,0-2.22,19.48,19.48,0,0,1,1.89-7.06,19.7,19.7,0,0,1,4.34-5.88,14.32,14.32,0,0,1,1.74-1.38c.44-.29.69-.43.71-.4s-.89.74-2.19,2.05a21.54,21.54,0,0,0-6.12,12.71C233.7,210,233.77,211.16,233.68,211.17Z" style="fill:#8d4032"></path><path d="M294.84,295.72c.36-.29,18.66,25.65,19.66,32.67s-2.32,71.81-2.32,71.81l-17.34-.75h0s-5.28-33.09-5-42,.8-20.32.8-20.32l-25.68-20.47Z" style="fill:#d8765f"></path><path d="M313.94,383l-.38,22.1s23,8.4,23.2,12.5l-44.54-.34,2-14.19-1.89-20.28Z" style="fill:#455a64"></path><path d="M299.8,403.15a1.65,1.65,0,1,0,.76,3.22,1.84,1.84,0,0,0,1.34-2.11,1.82,1.82,0,0,0-2.26-1.06" style="fill:#e0e0e0"></path><path d="M292.22,417.28l.15-3.48L335,415.42s2,.85,1.74,2.19Z" style="fill:#263238"></path><path d="M314.28,404.9c0,.21-1.1.29-2.17,1s-1.65,1.54-1.85,1.46.13-1.3,1.45-2.08S314.33,404.7,314.28,404.9Z" style="fill:#263238"></path><path d="M318.94,406.79c0,.21-.9.56-1.65,1.44s-1,1.81-1.18,1.8-.34-1.2.61-2.27S318.93,406.59,318.94,406.79Z" style="fill:#263238"></path><path d="M321.55,412.2c-.2,0-.5-1,.07-2.15s1.59-1.59,1.68-1.42-.54.79-1,1.73S321.76,412.18,321.55,412.2Z" style="fill:#263238"></path><path d="M313.93,399.84c-.09.19-1.09-.11-2.32,0s-2.19.44-2.3.26.81-.92,2.26-1S314,399.67,313.93,399.84Z" style="fill:#263238"></path><path d="M313.77,399.8a7.84,7.84,0,0,1-1.22-1.74,19.67,19.67,0,0,1-1.08-2,8.1,8.1,0,0,1-.48-1.32,2.28,2.28,0,0,1-.05-.79.87.87,0,0,1,.59-.8.93.93,0,0,1,.86.43c.16.2.31.4.44.6a7.73,7.73,0,0,1,.67,1.22,7.59,7.59,0,0,1,.58,2.27,4.07,4.07,0,0,1-.19,2.13c-.09,0,0-.82-.17-2.08a8.62,8.62,0,0,0-.66-2.12,8.27,8.27,0,0,0-.65-1.14c-.23-.33-.64-.87-.77-.8s-.17.16-.19.35a1.91,1.91,0,0,0,0,.63,8.92,8.92,0,0,0,.42,1.23c.33.78.67,1.47,1,2.05A9.73,9.73,0,0,1,313.77,399.8Z" style="fill:#263238"></path><path d="M314.3,399.29a5.54,5.54,0,0,1,1.14-2.23,10,10,0,0,1,1.92-2,10.75,10.75,0,0,1,1.37-.88,6.45,6.45,0,0,1,.79-.38.88.88,0,0,1,.61,0,.63.63,0,0,1,.36.61,4.56,4.56,0,0,1-2,2.82,15.42,15.42,0,0,1-2.38,1.34c-1.39.65-2.16,1.19-2.2,1.14a6,6,0,0,1,2-1.46,20.38,20.38,0,0,0,2.26-1.4,6.07,6.07,0,0,0,1.08-1.07,3.48,3.48,0,0,0,.65-1.38c0-.1,0-.11,0-.12a.38.38,0,0,0-.23,0,6,6,0,0,0-.73.34,10.57,10.57,0,0,0-1.32.82,10.9,10.9,0,0,0-1.92,1.8C314.76,398.45,314.38,399.33,314.3,399.29Z" style="fill:#263238"></path><path d="M207.57,329.75c.5.1-12.6,17.22-17.34,22.35s-45.73,54.37-45.73,54.37l-10.61-6.33s16.71-36.46,22-44.81c4.18-6.63,13.19-14.22,13.19-14.22l6.78-18.37Z" style="fill:#d8765f"></path><path d="M157.57,391.64l-11.35,18.41L143.8,435.1a2.72,2.72,0,0,1-3.26,2.37h0a2.9,2.9,0,0,1-2.08-1.55c-2.56-5.16-11.67-24-11.08-25.51.3-.82,6.18-11.26,6.18-11.26.08-.19,6.36-16.66,6.36-16.66Z" style="fill:#455a64"></path><path d="M140.54,437.47l-11.8-29.66-.8,1.5c-.34,1-.87,1.62-.52,2.55A235.07,235.07,0,0,0,138,436.2c.41.84,1.58,1.12,2.52,1.27Z" style="fill:#263238"></path><path d="M136.42,402.3a1.61,1.61,0,0,1-.33,2.19,1.63,1.63,0,0,1-1.87-2.67,1.74,1.74,0,0,1,2.29.62" style="fill:#fff"></path><path d="M146.32,403a2.24,2.24,0,0,0,.39-.93,6.78,6.78,0,0,0,.16-2.76,3.16,3.16,0,0,0-.76-1.88,1.17,1.17,0,0,0-1.29-.24,1.76,1.76,0,0,0-.84,1,4,4,0,0,0,2,4.6,4.69,4.69,0,0,0,5.09-.56,1.48,1.48,0,0,0,.53-1.18,1.12,1.12,0,0,0-.89-1,4,4,0,0,0-2,.2,7.75,7.75,0,0,0-2.5,1.26,2.59,2.59,0,0,0-.73.71,12.85,12.85,0,0,1,3.35-1.57,3.71,3.71,0,0,1,1.78-.13.59.59,0,0,1,.48.51,1,1,0,0,1-.39.76,4.19,4.19,0,0,1-4.43.43,3.42,3.42,0,0,1-1.76-3.88,1.27,1.27,0,0,1,.55-.7.65.65,0,0,1,.71.12,2.86,2.86,0,0,1,.68,1.58A10.4,10.4,0,0,1,146.32,403Z" style="fill:#263238"></path><path d="M145.91,412.91c-.21.39-1.62,0-3.32-.1s-3.16,0-3.31-.39c-.07-.2.24-.52.86-.79a5.51,5.51,0,0,1,2.56-.38,5.59,5.59,0,0,1,2.48.76C145.75,412.36,146,412.73,145.91,412.91Z" style="fill:#263238"></path><path d="M145.5,417.5c-.3.33-1.56-.34-3.2-.43s-3,.33-3.22,0c-.11-.18.12-.57.72-.94a4.52,4.52,0,0,1,2.61-.58,4.6,4.6,0,0,1,2.51.95C145.46,416.91,145.63,417.34,145.5,417.5Z" style="fill:#263238"></path><path d="M145,421.76c-.19.4-1.33.23-2.67.2s-2.48,0-2.65-.37,1-1.25,2.7-1.19S145.2,421.39,145,421.76Z" style="fill:#263238"></path><path d="M146.89,409.83c-.3.32-1.47-.29-2.88-.91s-2.65-1.09-2.61-1.53,1.56-.65,3.24.1S147.19,409.53,146.89,409.83Z" style="fill:#263238"></path><path d="M148.4,406.61c-.41.16-1.22-.9-2.47-1.83s-2.46-1.46-2.41-1.9c0-.2.43-.35,1.08-.29a4.86,4.86,0,0,1,3.8,2.9C148.63,406.09,148.59,406.52,148.4,406.61Z" style="fill:#263238"></path><path d="M259.57,236.17l1.29,9.54,38,54.07-38,28.61-26.69-41-14.43,49.77s-45-6.95-48.21-9.05c0,0,7.39-28,10.55-38.62,1.65-5.57,3.39-16.64,6-24.79a214.46,214.46,0,0,1,9-22.46l3.14-9.7s26.28,8.27,39.63,6.17S259.57,236.17,259.57,236.17Z" style="fill:#455a64"></path><path d="M197.13,242.21c-.22.68,4.05-12,4.05-12s25.63,4.65,33.19,4.46,27-3,27-3l-.49,14s-20.52,1.92-30.72,1.83S197.13,242.21,197.13,242.21Z" style="fill:#e0e0e0"></path><path d="M238,274.38a73.37,73.37,0,0,1-2.39,8.52,77.69,77.69,0,0,1-2.89,8.36,74,74,0,0,1,2.39-8.52A77.69,77.69,0,0,1,238,274.38Z" style="fill:#263238"></path><path d="M199.17,242.67s0,.07-.06.22l-.22.64c-.22.6-.52,1.42-.89,2.45l-3.29,9c-1.36,3.8-3,8.33-4.59,13.42-.4,1.27-.79,2.58-1.15,3.93s-.67,2.74-1,4.15c-.71,2.82-1.44,5.74-2.19,8.73-3.05,12-5.88,22.76-7.94,30.57-1,3.87-1.87,7-2.46,9.25l-.68,2.51a7.25,7.25,0,0,1-.26.87.74.74,0,0,1,0-.22c0-.15.07-.38.14-.67.14-.63.34-1.47.58-2.54.56-2.24,1.34-5.4,2.31-9.29,2-7.87,4.75-18.67,7.78-30.6.76-3,1.49-5.91,2.2-8.73.35-1.41.67-2.8,1-4.16s.76-2.67,1.17-3.94c1.64-5.1,3.3-9.62,4.71-13.4s2.6-6.84,3.44-8.94l1-2.41.27-.62C199.13,242.73,199.16,242.66,199.17,242.67Z" style="fill:#fff"></path><path d="M202.6,242.67s0,.07-.06.22l-.22.64c-.22.6-.52,1.42-.89,2.45-.8,2.16-1.92,5.22-3.29,9s-3,8.33-4.59,13.42c-.4,1.27-.79,2.58-1.15,3.93s-.67,2.74-1,4.15c-.7,2.82-1.44,5.74-2.18,8.73-3,12-5.88,22.76-7.94,30.57-1,3.87-1.87,7-2.46,9.25l-.69,2.51a5.47,5.47,0,0,1-.26.87,1.28,1.28,0,0,1,0-.22c0-.15.07-.38.13-.67.15-.63.34-1.47.59-2.54.56-2.24,1.34-5.4,2.3-9.29,2-7.87,4.75-18.67,7.79-30.6.75-3,1.49-5.91,2.2-8.73.35-1.41.66-2.8,1-4.16s.76-2.67,1.17-3.94c1.63-5.1,3.3-9.62,4.7-13.4s2.61-6.84,3.45-8.94l1-2.41.27-.62C202.55,242.73,202.59,242.66,202.6,242.67Z" style="fill:#fff"></path><path d="M244.27,240.06a10.43,10.43,0,0,1-2.52.61,54.37,54.37,0,0,1-12.48.74,10.42,10.42,0,0,1-2.57-.32,15.8,15.8,0,0,1,2.58-.05c1.6,0,3.8,0,6.22-.16s4.61-.38,6.19-.57A15.16,15.16,0,0,1,244.27,240.06Z" style="fill:#263238"></path><g style="opacity:0.2"><path d="M289.9,153.46a6.57,6.57,0,0,0-2.66-4.22,16.59,16.59,0,0,0-11.2-3.8,5.7,5.7,0,0,0-2.12.48,4.85,4.85,0,0,0-1.58,1.1,1.92,1.92,0,0,0-.49,1.94c.4,1.21,1.78,1.34,2.92,1.51a12.18,12.18,0,0,1,6.09,2.74,31.69,31.69,0,0,0,3.45,3c1.57,1,3.86,1.28,5.06-.48A3.47,3.47,0,0,0,289.9,153.46Z" style="fill:#fff"></path></g></g></svg>